<?xml version="1.0" encoding="UTF-8"?>
<svg xmlns="http://www.w3.org/2000/svg" width="1200" height="675" viewBox="0 0 1200 675">
  <defs>
    <linearGradient id="bg" x1="0" y1="0" x2="1" y2="1">
      <stop offset="0%" stop-color="#0e0e10"/>
      <stop offset="55%" stop-color="#131315"/>
      <stop offset="100%" stop-color="#1c1b1d"/>
    </linearGradient>
    <radialGradient id="glow" cx="50%" cy="38%" r="55%">
      <stop offset="0%" stop-color="#4edea3" stop-opacity="0.16"/>
      <stop offset="100%" stop-color="#4edea3" stop-opacity="0"/>
    </radialGradient>
  </defs>
  <rect width="1200" height="675" fill="url(#bg)"/>
  <rect width="1200" height="675" fill="url(#glow)"/>
  <rect x="36" y="36" width="1128" height="603" rx="18" fill="none" stroke="#4edea3" stroke-opacity="0.35" stroke-width="1.5"/>
  <rect x="48" y="48" width="1104" height="579" rx="14" fill="none" stroke="#3c4a42" stroke-width="1"/>
  <text x="600" y="105" text-anchor="middle" fill="#4edea3" font-family="monospace" font-size="15" letter-spacing="3.5" opacity="0.9">GRAPHICAL ABSTRACT PLACEHOLDER</text>
  <line x1="390" y1="125" x2="810" y2="125" stroke="#4edea3" stroke-width="1" opacity="0.35"/>
  
  <g transform="translate(440,230)" opacity="0.9" stroke="#4edea3" fill="none" stroke-width="2.2">
    <polygon points="80,0 160,46 160,138 80,184 0,138 0,46"/>
    <polygon points="80,46 160,92 80,138 0,92"/>
    <line x1="80" y1="0" x2="80" y2="184"/>
    <line x1="0" y1="46" x2="160" y2="138"/>
    <line x1="160" y1="46" x2="0" y2="138"/>
  </g>
  <rect x="300" y="450" width="600" height="34" rx="6" fill="none" stroke="#4edea3" stroke-width="1.5" opacity="0.45"/>
  <text x="600" y="540" text-anchor="middle" fill="#e5e1e4" font-family="system-ui,sans-serif" font-size="30" font-weight="600">Photo-Thermal rGO Transistor</text>
  <text x="600" y="575" text-anchor="middle" fill="#a1a1aa" font-family="monospace" font-size="15">Ion-gel dielectric · low-voltage graphene devices</text>
  <text x="600" y="615" text-anchor="middle" fill="#71717a" font-family="monospace" font-size="13">Replace this file with your graphical abstract</text>
</svg>
